<?xml version="1.0" encoding="UTF-8"?>
<!DOCTYPE svg PUBLIC "-//W3C//DTD SVG 1.1//EN" "http://www.w3.org/Graphics/SVG/1.1/DTD/svg11.dtd">
<svg xmlns="http://www.w3.org/2000/svg" version="1.1" width="1292px" height="1302px" style="shape-rendering:geometricPrecision; text-rendering:geometricPrecision; image-rendering:optimizeQuality; fill-rule:evenodd; clip-rule:evenodd" xmlns:xlink="http://www.w3.org/1999/xlink">
<g><path style="opacity:1" fill="#150906" d="M 112.5,485.5 C 111.305,485.322 110.138,484.989 109,484.5C 108.055,484.905 107.388,485.572 107,486.5C 105.525,501.477 104.858,516.477 105,531.5C 108.539,548.861 112.206,566.195 116,583.5C 125.161,595.82 133.828,608.486 142,621.5C 143.049,622.517 144.216,622.684 145.5,622C 158.226,614.97 171.226,608.47 184.5,602.5C 193.699,605.466 203.032,607.8 212.5,609.5C 214.002,597.161 214.669,584.827 214.5,572.5C 203.182,576.439 191.849,580.273 180.5,584C 174.304,592.696 168.304,601.53 162.5,610.5C 161.726,611.711 160.893,611.711 160,610.5C 149,592.833 138,575.167 127,557.5C 122.473,537.529 118.473,517.529 115,497.5C 123.333,508.5 131.667,519.5 140,530.5C 140.736,539.844 141.569,549.177 142.5,558.5C 151.28,561.723 159.946,565.223 168.5,569C 172.343,573.674 176.343,578.174 180.5,582.5C 191.935,578.059 203.601,574.392 215.5,571.5C 215.664,568.813 215.497,566.146 215,563.5C 202.97,545.635 191.137,527.635 179.5,509.5C 166.497,504.832 153.497,500.166 140.5,495.5C 141.601,494.402 142.934,494.235 144.5,495C 163.833,501.667 183.167,508.333 202.5,515C 208.359,526.246 214.025,537.579 219.5,549C 223.941,548.128 228.274,546.628 232.5,544.5C 233.416,544.543 234.083,544.876 234.5,545.5C 229.511,547.328 224.844,549.661 220.5,552.5C 228.029,569.726 235.696,586.892 243.5,604C 243.85,605.257 244.517,605.591 245.5,605C 250.782,598.893 255.449,592.393 259.5,585.5C 255.783,569.962 251.45,554.628 246.5,539.5C 243.596,541.12 240.596,542.453 237.5,543.5C 236.448,543.649 235.448,543.483 234.5,543C 239.428,540.451 244.595,538.617 250,537.5C 257.135,538.734 264.301,539.734 271.5,540.5C 278.356,539.663 285.189,538.663 292,537.5C 301.866,540.93 311.532,544.93 321,549.5C 321.772,549.355 322.439,549.022 323,548.5C 328.11,536.802 333.777,525.469 340,514.5C 372.09,503.192 404.257,492.192 436.5,481.5C 437.666,497.819 438.166,514.153 438,530.5C 434.333,548.169 430.666,565.836 427,583.5C 418.363,596.969 409.53,610.302 400.5,623.5C 406.049,626.211 411.216,629.545 416,633.5C 424.329,648.829 433.162,663.829 442.5,678.5C 438.448,679.316 434.448,680.316 430.5,681.5C 438.117,697.235 446.117,712.735 454.5,728C 447.078,728.083 439.744,727.249 432.5,725.5C 431.051,727.611 430.051,729.944 429.5,732.5C 428.833,732.833 428.167,733.167 427.5,733.5C 425.199,732.604 422.866,732.438 420.5,733C 404.017,738.288 387.351,742.954 370.5,747C 364.859,751.971 359.192,756.971 353.5,762C 346.579,766.71 339.746,771.544 333,776.5C 332.218,779.31 331.384,781.977 330.5,784.5C 330.664,781.813 330.497,779.146 330,776.5C 327.814,772.802 325.147,769.468 322,766.5C 314.394,770.385 306.894,774.385 299.5,778.5C 298.833,777.833 298.167,777.167 297.5,776.5C 305.969,772.765 314.303,768.765 322.5,764.5C 325.161,766.33 327.328,768.663 329,771.5C 325.515,755.889 321.849,740.222 318,724.5C 316.945,721.944 315.112,720.277 312.5,719.5C 309.375,718.521 306.042,718.187 302.5,718.5C 302.185,722.371 302.518,726.038 303.5,729.5C 303.286,736.197 303.619,742.864 304.5,749.5C 302.93,755.892 300.596,761.892 297.5,767.5C 297.5,766.833 297.167,766.5 296.5,766.5C 298.619,762.318 300.452,757.985 302,753.5C 302.664,741.787 302.164,730.12 300.5,718.5C 290.769,714.534 280.936,710.868 271,707.5C 261.064,710.868 251.231,714.534 241.5,718.5C 240.024,728.275 239.024,738.109 238.5,748C 239.118,752.401 240.451,756.568 242.5,760.5C 241.833,760.5 241.5,760.833 241.5,761.5C 238.572,757.031 237.239,752.031 237.5,746.5C 238.277,737.182 238.61,727.849 238.5,718.5C 230.279,716.931 224.946,719.931 222.5,727.5C 222.5,726.833 222.167,726.5 221.5,726.5C 221.912,724.113 222.912,722.113 224.5,720.5C 225.289,720.217 225.956,719.717 226.5,719C 223.633,718.199 220.966,718.366 218.5,719.5C 212.833,719.5 207.167,719.5 201.5,719.5C 197.608,733.011 193.608,746.511 189.5,760C 195.382,764.723 201.382,769.223 207.5,773.5C 206.833,773.5 206.5,773.833 206.5,774.5C 194.183,767.027 182.85,758.194 172.5,748C 168.833,747 165.167,746 161.5,745C 160.944,744.617 160.611,744.117 160.5,743.5C 163.909,744.027 167.242,744.527 170.5,745C 150.349,726.35 130.349,707.516 110.5,688.5C 103.579,700.674 96.9124,713.007 90.5,725.5C 91.3333,725.833 92.1667,726.167 93,726.5C 99.1893,725.545 105.356,724.545 111.5,723.5C 111.779,726.118 112.446,728.618 113.5,731C 115.112,731.72 116.612,731.554 118,730.5C 129.993,733.952 141.826,737.618 153.5,741.5C 143.003,739.793 132.669,737.293 122.5,734C 118.848,733.501 115.182,733.335 111.5,733.5C 111.326,731.139 110.993,728.806 110.5,726.5C 102.799,726.96 95.1328,727.46 87.5,728C 95.3724,712.422 103.372,696.922 111.5,681.5C 107.552,680.316 103.552,679.316 99.5,678.5C 108.582,662.668 117.915,647.001 127.5,631.5C 131.545,629.428 135.545,627.262 139.5,625C 140.022,624.439 140.355,623.772 140.5,623C 132.074,609.571 123.24,596.405 114,583.5C 110.397,564.106 106.564,544.773 102.5,525.5C 103.55,510.803 104.883,496.136 106.5,481.5C 109.382,482.961 112.382,484.127 115.5,485C 114.552,485.483 113.552,485.649 112.5,485.5 Z"/></g>
<g><path style="opacity:1" fill="#eb5f2a" d="M 294.5,539.5 C 303.626,543.563 312.626,547.897 321.5,552.5C 313.317,570.197 305.15,587.864 297,605.5C 291.833,599 286.667,592.5 281.5,586C 285.757,570.471 290.09,554.971 294.5,539.5 Z"/></g>
<g><path style="opacity:1" fill="#eb5f2b" d="M 234.5,545.5 C 235.71,545.068 236.71,544.401 237.5,543.5C 240.596,542.453 243.596,541.12 246.5,539.5C 251.45,554.628 255.783,569.962 259.5,585.5C 255.449,592.393 250.782,598.893 245.5,605C 244.517,605.591 243.85,605.257 243.5,604C 235.696,586.892 228.029,569.726 220.5,552.5C 224.844,549.661 229.511,547.328 234.5,545.5 Z"/></g>
<g><path style="opacity:1" fill="#ec602b" d="M 249.5,539.5 C 256.531,540.219 263.531,541.219 270.5,542.5C 276.658,541.446 282.825,540.446 289,539.5C 290.167,539.833 291.333,540.167 292.5,540.5C 288.561,555.367 284.561,570.201 280.5,585C 280.625,586.627 281.125,588.127 282,589.5C 286.833,595.667 291.667,601.833 296.5,608C 290.837,620.316 285.17,632.649 279.5,645C 284.614,654.729 290.114,664.229 296,673.5C 296.688,674.332 296.521,674.998 295.5,675.5C 287.167,671.5 278.833,667.5 270.5,663.5C 262.105,668.203 253.438,672.037 244.5,675C 250.878,665.08 256.878,654.914 262.5,644.5C 256.713,632.424 251.046,620.257 245.5,608C 250.626,600.703 255.96,593.536 261.5,586.5C 256.712,571.013 252.712,555.346 249.5,539.5 Z"/></g>
<g><path style="opacity:1" fill="#e65d2a" d="M 358.5,509.5 C 359.525,509.897 359.692,510.563 359,511.5C 348.068,528.376 336.901,545.043 325.5,561.5C 323.91,557.964 323.41,554.297 324,550.5C 329.167,539.5 334.333,528.5 339.5,517.5C 345.838,514.676 352.171,512.009 358.5,509.5 Z"/></g>
<g><path style="opacity:1" fill="#e75e2a" d="M 182.5,511.5 C 182.735,510.903 183.235,510.57 184,510.5C 190.165,512.611 196.332,514.611 202.5,516.5C 207.041,527.253 211.875,537.92 217,548.5C 217.879,553.287 217.545,557.953 216,562.5C 204.97,545.324 193.804,528.324 182.5,511.5 Z"/></g>
<g><path style="opacity:1" fill="#ec602b" d="M 330.5,609.5 C 329.833,607.5 329.167,605.5 328.5,603.5C 327.8,593.257 326.8,583.09 325.5,573C 337.451,576.425 349.451,580.092 361.5,584C 367.791,593.415 373.958,602.915 380,612.5C 391.667,594.167 403.333,575.833 415,557.5C 419.196,537.86 422.862,518.193 426,498.5C 418.048,509.453 409.715,520.12 401,530.5C 400.819,539.744 400.319,548.911 399.5,558C 391.246,561.529 382.913,564.862 374.5,568C 370.298,573.199 365.798,578.032 361,582.5C 349.5,578.667 338,574.833 326.5,571C 325.409,568.936 325.242,566.769 326,564.5C 338.291,546.086 350.458,527.586 362.5,509C 386.206,499.931 410.206,491.765 434.5,484.5C 435.334,498.008 436.334,511.508 437.5,525C 433.924,544.212 430.091,563.379 426,582.5C 416.971,595.363 408.138,608.363 399.5,621.5C 398.635,622.583 397.635,622.749 396.5,622C 384.01,615.922 371.677,609.589 359.5,603C 357.5,602.333 355.5,602.333 353.5,603C 345.892,605.486 338.226,607.652 330.5,609.5 Z"/></g>
<g><path style="opacity:1" fill="#221e1f" d="M 422.5,505.5 C 420.483,522.773 417.317,540.106 413,557.5C 402.249,574.67 391.249,591.67 380,608.5C 374.304,600.302 368.804,591.969 363.5,583.5C 367.341,578.496 371.341,573.663 375.5,569C 384.054,566.389 392.387,563.222 400.5,559.5C 401.576,550.191 402.41,540.858 403,531.5C 409.717,522.956 416.217,514.29 422.5,505.5 Z"/></g>
<g><path style="opacity:1" fill="#ec602b" d="M 112.5,485.5 C 121.824,488.61 131.157,491.943 140.5,495.5C 153.497,500.166 166.497,504.832 179.5,509.5C 191.137,527.635 202.97,545.635 215,563.5C 215.497,566.146 215.664,568.813 215.5,571.5C 203.601,574.392 191.935,578.059 180.5,582.5C 176.343,578.174 172.343,573.674 168.5,569C 159.946,565.223 151.28,561.723 142.5,558.5C 141.569,549.177 140.736,539.844 140,530.5C 131.667,519.5 123.333,508.5 115,497.5C 118.473,517.529 122.473,537.529 127,557.5C 138,575.167 149,592.833 160,610.5C 160.893,611.711 161.726,611.711 162.5,610.5C 168.304,601.53 174.304,592.696 180.5,584C 191.849,580.273 203.182,576.439 214.5,572.5C 214.669,584.827 214.002,597.161 212.5,609.5C 203.032,607.8 193.699,605.466 184.5,602.5C 171.226,608.47 158.226,614.97 145.5,622C 144.216,622.684 143.049,622.517 142,621.5C 133.828,608.486 125.161,595.82 116,583.5C 112.206,566.195 108.539,548.861 105,531.5C 104.858,516.477 105.525,501.477 107,486.5C 107.388,485.572 108.055,484.905 109,484.5C 110.138,484.989 111.305,485.322 112.5,485.5 Z"/></g>
<g><path style="opacity:1" fill="#221e1f" d="M 118.5,506.5 C 125.793,514.395 132.626,522.729 139,531.5C 139.168,540.851 139.668,550.184 140.5,559.5C 149.207,562.902 157.873,566.402 166.5,570C 169.883,573.928 173.383,577.761 177,581.5C 177.667,582.833 177.667,584.167 177,585.5C 172.029,593.303 166.862,600.97 161.5,608.5C 150.084,591.337 138.917,574.003 128,556.5C 124.51,539.883 121.343,523.216 118.5,506.5 Z"/></g>
<g><path style="opacity:1" fill="#e95e2a" d="M 218.5,555.5 C 220.335,556.122 221.502,557.456 222,559.5C 233.363,585.059 244.863,610.559 256.5,636C 255.898,637.563 255.065,637.396 254,635.5C 249.878,629.709 245.378,624.209 240.5,619C 231.919,616.195 223.252,613.695 214.5,611.5C 215.171,592.785 216.504,574.118 218.5,555.5 Z"/></g>
<g><path style="opacity:1" fill="#e95e2a" d="M 321.5,555.5 C 323.018,558.534 323.851,561.867 324,565.5C 325.167,578.833 326.333,592.167 327.5,605.5C 327.167,607.167 326.833,608.833 326.5,610.5C 318.21,613.488 309.876,616.322 301.5,619C 295.625,625.207 290.125,631.707 285,638.5C 296.658,610.723 308.825,583.056 321.5,555.5 Z"/></g>
<g><path style="opacity:1" fill="#adacac" d="M 822.5,587.5 C 835.006,586.175 847.673,586.175 860.5,587.5C 860.376,588.107 860.043,588.44 859.5,588.5C 847.345,587.505 835.011,587.171 822.5,587.5 Z"/></g>
<g><path style="opacity:1" fill="#f5eeec" d="M 822.5,587.5 C 835.011,587.171 847.345,587.505 859.5,588.5C 851.725,632.818 844.058,677.152 836.5,721.5C 823.833,721.5 811.167,721.5 798.5,721.5C 799.014,719.488 799.18,717.488 799,715.5C 782.045,726.319 765.212,726.152 748.5,715C 735.88,701.501 731.714,685.668 736,667.5C 740.98,643.001 755.146,626.501 778.5,618C 791.58,614.679 803.58,616.846 814.5,624.5C 817.287,612.083 819.953,599.749 822.5,587.5 Z"/></g>
<g><path style="opacity:1" fill="#f5967e" d="M 825.5,591.5 C 835.341,590.177 845.341,590.177 855.5,591.5C 855.376,592.107 855.043,592.44 854.5,592.5C 845.014,591.506 835.348,591.173 825.5,591.5 Z"/></g>
<g><path style="opacity:1" fill="#f1622d" d="M 825.5,591.5 C 835.348,591.173 845.014,591.506 854.5,592.5C 847.276,634.179 839.942,675.846 832.5,717.5C 822.833,717.5 813.167,717.5 803.5,717.5C 804.124,713.441 804.624,709.441 805,705.5C 791.324,718.569 775.49,722.069 757.5,716C 747.755,710.243 741.921,701.743 740,690.5C 736.677,666.796 743.844,646.963 761.5,631C 777.383,618.917 794.05,617.584 811.5,627C 814.021,629.22 816.188,631.72 818,634.5C 820.697,620.183 823.197,605.849 825.5,591.5 Z"/></g>
<g><path style="opacity:1" fill="#f6f0ef" d="M 568.5,721.5 C 546.474,722.156 524.808,721.489 503.5,719.5C 510.448,677.811 517.615,636.144 525,594.5C 548.094,593.34 571.261,593.173 594.5,594C 618.78,600.057 626.613,614.89 618,638.5C 614.947,646.218 609.781,652.052 602.5,656C 615.902,668.684 618.068,683.184 609,699.5C 599.508,713.999 586.008,721.333 568.5,721.5 Z"/></g>
<g><path style="opacity:1" fill="#f8f0ee" d="M 971.5,672.5 C 958.788,671.854 946.455,672.52 934.5,674.5C 932.018,690.208 929.352,705.875 926.5,721.5C 914.167,721.5 901.833,721.5 889.5,721.5C 889.5,720.5 889.5,719.5 889.5,718.5C 896.341,677.122 903.507,635.789 911,594.5C 939.76,593.505 968.593,593.171 997.5,593.5C 996.577,603.631 994.91,613.631 992.5,623.5C 976.18,624.499 959.847,624.833 943.5,624.5C 942.607,630.189 941.607,635.856 940.5,641.5C 952.833,642.167 965.167,642.833 977.5,643.5C 975.22,653.235 973.22,662.902 971.5,672.5 Z"/></g>
<g><path style="opacity:1" fill="#f1622c" d="M 567.5,717.5 C 547.472,718.154 527.805,717.488 508.5,715.5C 515.259,676.189 521.926,636.856 528.5,597.5C 551.206,597.065 573.872,597.565 596.5,599C 611.413,602.235 618.246,611.402 617,626.5C 615.03,641.471 606.864,651.304 592.5,656C 600.901,658.068 606.401,663.234 609,671.5C 610.584,700.428 596.751,715.761 567.5,717.5 Z"/></g>
<g><path style="opacity:1" fill="#f1622c" d="M 914.5,597.5 C 940.5,597.5 966.5,597.5 992.5,597.5C 991.779,605.212 990.779,612.879 989.5,620.5C 972.833,620.5 956.167,620.5 939.5,620.5C 938.445,629.216 937.112,637.882 935.5,646.5C 947.851,646.168 960.185,646.501 972.5,647.5C 970.796,654.429 969.463,661.429 968.5,668.5C 956.149,668.168 943.815,668.501 931.5,669.5C 928.185,685.392 925.518,701.392 923.5,717.5C 913.494,717.666 903.494,717.5 893.5,717C 900.888,677.272 907.888,637.438 914.5,597.5 Z"/></g>
<g><path style="opacity:1" fill="#ee602b" d="M 181.5,604.5 C 186.046,604.268 190.379,605.101 194.5,607C 206.034,618.202 217.867,629.035 230,639.5C 235.167,649.833 240.333,660.167 245.5,670.5C 242.882,676.28 238.882,680.446 233.5,683C 218.35,669.351 203.35,655.517 188.5,641.5C 162.266,650.253 135.933,657.92 109.5,664.5C 115.708,653.917 122.041,643.417 128.5,633C 146.228,623.471 163.895,613.971 181.5,604.5 Z"/></g>
<g><path style="opacity:1" fill="#ed602b" d="M 317.5,675.5 C 313.897,677.763 310.564,680.43 307.5,683.5C 302.199,680.575 298.533,676.242 296.5,670.5C 301.058,660.383 305.892,650.383 311,640.5C 323.237,628.259 336.071,616.759 349.5,606C 352,605.5 354.5,605 357,604.5C 376.434,613.126 395.267,622.793 413.5,633.5C 419.833,644.167 426.167,654.833 432.5,665.5C 432.167,665.833 431.833,666.167 431.5,666.5C 405.566,658.3 379.566,650.3 353.5,642.5C 351.734,643.091 350.067,643.924 348.5,645C 337.705,654.724 327.372,664.891 317.5,675.5 Z"/></g>
<g><path style="opacity:1" fill="#e95e2a" d="M 199.5,609.5 C 199.735,608.903 200.235,608.57 201,608.5C 212.555,611.796 224.055,615.296 235.5,619C 245.816,631.281 250.983,645.448 251,661.5C 249.414,663.67 248.08,666.004 247,668.5C 241.427,658.355 236.093,648.021 231,637.5C 220.331,628.33 209.831,618.997 199.5,609.5 Z"/></g>
<g><path style="opacity:1" fill="#742f16" d="M 328.5,603.5 C 329.167,605.5 329.833,607.5 330.5,609.5C 330.44,610.043 330.107,610.376 329.5,610.5C 328.526,608.257 328.192,605.924 328.5,603.5 Z"/></g>
<g><path style="opacity:1" fill="#e85e2a" d="M 338.5,608.5 C 339.873,608.343 341.207,608.51 342.5,609C 332.299,618.87 321.799,628.37 311,637.5C 305.922,647.99 300.589,658.323 295,668.5C 290.717,663.261 289.384,657.261 291,650.5C 293.535,638.875 298.368,628.375 305.5,619C 316.65,615.636 327.65,612.136 338.5,608.5 Z"/></g>
<g><path style="opacity:1" fill="#f6f0ef" d="M 719.5,721.5 C 706.788,722.146 694.455,721.48 682.5,719.5C 682.719,718.325 682.386,717.325 681.5,716.5C 659.088,728.783 639.921,725.117 624,705.5C 614.637,681.768 617.304,659.435 632,638.5C 647.641,618.618 667.475,612.452 691.5,620C 694.266,621.467 696.766,623.3 699,625.5C 699.497,623.19 699.663,620.857 699.5,618.5C 712.167,618.5 724.833,618.5 737.5,618.5C 731.868,652.93 725.868,687.264 719.5,721.5 Z"/></g>
<g><path style="opacity:1" fill="#f4eeed" d="M 1039.5,616.5 C 1058.56,614.347 1074.39,620.347 1087,634.5C 1094.15,646.188 1096.48,658.855 1094,672.5C 1087.38,701.735 1069.22,718.569 1039.5,723C 1000.11,724.609 982.277,705.776 986,666.5C 993.109,638.22 1010.94,621.554 1039.5,616.5 Z"/></g>
<g><path style="opacity:1" fill="#f8f2f0" d="M 1121.5,721.5 C 1107.66,721.829 1093.99,721.496 1080.5,720.5C 1093.79,704.04 1107.29,687.707 1121,671.5C 1121.78,670.271 1122.28,668.938 1122.5,667.5C 1114.57,651.135 1106.23,634.968 1097.5,619C 1111.84,618.167 1126.18,618.334 1140.5,619.5C 1144,626.5 1147.5,633.5 1151,640.5C 1156.69,633.644 1162.19,626.644 1167.5,619.5C 1181.82,618.334 1196.16,618.167 1210.5,619C 1195.83,636.333 1181.17,653.667 1166.5,671C 1175.31,687.453 1183.98,703.953 1192.5,720.5C 1178.51,721.666 1164.51,721.833 1150.5,721C 1146.79,713.754 1142.96,706.587 1139,699.5C 1133.39,707.085 1127.55,714.418 1121.5,721.5 Z"/></g>
<g><path style="opacity:1" fill="#f1622d" d="M 703.5,622.5 C 713.558,621.86 723.225,622.527 732.5,624.5C 726.982,655.461 721.648,686.461 716.5,717.5C 706.833,717.5 697.167,717.5 687.5,717.5C 687.5,716.5 687.5,715.5 687.5,714.5C 688.468,711.555 688.634,708.555 688,705.5C 673.177,720.331 656.343,723.164 637.5,714C 628.906,707.319 624.073,698.486 623,687.5C 621.133,662.746 629.966,642.913 649.5,628C 663.797,618.781 678.464,618.114 693.5,626C 696.372,628.537 698.872,631.37 701,634.5C 702.066,630.535 702.899,626.535 703.5,622.5 Z"/></g>
<g><path style="opacity:1" fill="#f1622d" d="M 1041.5,620.5 C 1080.56,620.964 1096.06,640.297 1088,678.5C 1079.42,702.73 1062.25,716.23 1036.5,719C 1007.41,720.82 991.745,707.32 989.5,678.5C 991.769,645.568 1009.1,626.235 1041.5,620.5 Z"/></g>
<g><path style="opacity:1" fill="#f6efee" d="M 553.5,620.5 C 562.173,620.334 570.84,620.5 579.5,621C 586.938,625.577 588.438,631.743 584,639.5C 582.062,642.106 579.562,643.939 576.5,645C 567.568,646.381 558.568,646.881 549.5,646.5C 551.051,637.86 552.385,629.193 553.5,620.5 Z"/></g>
<g><path style="opacity:1" fill="#f8bfb2" d="M 703.5,622.5 C 713.319,621.506 723.319,621.173 733.5,621.5C 733.737,622.791 733.404,623.791 732.5,624.5C 723.225,622.527 713.558,621.86 703.5,622.5 Z"/></g>
<g><path style="opacity:1" fill="#f8beb1" d="M 1170.5,622.5 C 1181.01,621.177 1191.67,621.177 1202.5,622.5C 1202.38,623.107 1202.04,623.44 1201.5,623.5C 1191.35,622.506 1181.01,622.172 1170.5,622.5 Z"/></g>
<g><path style="opacity:1" fill="#f1622d" d="M 1170.5,622.5 C 1181.01,622.172 1191.35,622.506 1201.5,623.5C 1187.97,638.864 1174.97,654.698 1162.5,671C 1170.3,686.1 1177.97,701.267 1185.5,716.5C 1174.6,717.819 1163.6,717.819 1152.5,716.5C 1148.35,708.193 1144.18,699.86 1140,691.5C 1133.38,699.91 1126.88,708.41 1120.5,717C 1109.83,717.667 1099.17,717.667 1088.5,717C 1102.1,701.241 1115.1,685.074 1127.5,668.5C 1120.11,653.38 1112.44,638.38 1104.5,623.5C 1115.5,622.167 1126.5,622.167 1137.5,623.5C 1142,631.833 1146.5,640.167 1151,648.5C 1157.28,639.586 1163.78,630.92 1170.5,622.5 Z"/></g>
<g><path style="opacity:1" fill="#231f20" d="M 573.5,641.5 C 567.074,642.12 561.074,641.453 555.5,639.5C 556.006,634.477 556.673,629.477 557.5,624.5C 563.842,624.334 570.175,624.5 576.5,625C 581.198,625.964 583.031,628.797 582,633.5C 580.587,637.748 577.754,640.415 573.5,641.5 Z"/></g>
<g><path style="opacity:1" fill="#da5828" d="M 241.5,623.5 C 247.816,630.762 254.149,638.095 260.5,645.5C 258.25,649.668 255.75,653.668 253,657.5C 251.644,645.264 247.811,633.931 241.5,623.5 Z"/></g>
<g><path style="opacity:1" fill="#df5a28" d="M 297.5,625.5 C 298.043,625.56 298.376,625.893 298.5,626.5C 293.305,636.251 289.805,646.584 288,657.5C 286.034,653.374 283.868,649.374 281.5,645.5C 286.842,638.803 292.175,632.136 297.5,625.5 Z"/></g>
<g><path style="opacity:1" fill="#7c7b7b" d="M 555.5,639.5 C 561.074,641.453 567.074,642.12 573.5,641.5C 567.355,642.49 561.022,642.823 554.5,642.5C 554.263,641.209 554.596,640.209 555.5,639.5 Z"/></g>
<g><path style="opacity:1" fill="#e95e2a" d="M 188.5,644.5 C 196.609,651.437 204.609,658.604 212.5,666C 200.03,663.619 187.363,662.286 174.5,662C 179,656.003 183.667,650.17 188.5,644.5 Z"/></g>
<g><path style="opacity:1" fill="#e55d29" d="M 351.5,644.5 C 353.017,644.511 354.184,645.177 355,646.5C 359.122,652.291 363.622,657.791 368.5,663C 364.81,663.581 361.144,663.415 357.5,662.5C 348.028,663.135 338.694,664.302 329.5,666C 336.729,658.603 344.062,651.437 351.5,644.5 Z"/></g>
<g><path style="opacity:1" fill="#eb5f2b" d="M 181.5,645.5 C 182.873,645.343 184.207,645.51 185.5,646C 173.79,659.375 162.456,673.042 151.5,687C 149.5,687.667 147.5,687.667 145.5,687C 130.885,683.929 116.552,680.429 102.5,676.5C 104.019,672.942 106.352,670.109 109.5,668C 133.689,660.768 157.689,653.268 181.5,645.5 Z"/></g>
<g><path style="opacity:1" fill="#eb5f2b" d="M 355.5,645.5 C 355.56,644.957 355.893,644.624 356.5,644.5C 382.792,652.542 408.958,660.875 435,669.5C 436.123,672.249 437.623,674.749 439.5,677C 423.294,681.241 406.961,684.574 390.5,687C 378.696,673.188 367.03,659.355 355.5,645.5 Z"/></g>
<g><path style="opacity:1" fill="#f6efee" d="M 672.5,646.5 C 690.306,645.475 697.806,653.809 695,671.5C 690.78,687.187 680.614,694.354 664.5,693C 655.241,688.316 651.408,680.816 653,670.5C 655.349,658.997 661.849,650.997 672.5,646.5 Z"/></g>
<g><path style="opacity:1" fill="#f6efed" d="M 788.5,646.5 C 808.098,645.272 815.598,654.272 811,673.5C 805.425,689.198 794.591,695.365 778.5,692C 772.352,688.038 769.352,682.372 769.5,675C 770.126,661.566 776.459,652.066 788.5,646.5 Z"/></g>
<g><path style="opacity:1" fill="#f6efed" d="M 1040.5,645.5 C 1056.53,646.171 1063.03,654.505 1060,670.5C 1055.34,689.4 1043.84,696.234 1025.5,691C 1023.64,689.442 1022.14,687.609 1021,685.5C 1016.62,666.601 1023.12,653.268 1040.5,645.5 Z"/></g>
<g><path style="opacity:1" fill="#242021" d="M 673.5,650.5 C 687.167,649.666 693.001,656 691,669.5C 688.231,683.612 679.731,690.112 665.5,689C 661.763,687.719 659.263,685.219 658,681.5C 655.259,666.981 660.426,656.648 673.5,650.5 Z"/></g>
<g><path style="opacity:1" fill="#242021" d="M 791.5,650.5 C 805.881,650.574 811.047,657.574 807,671.5C 802.643,686.26 793.143,691.427 778.5,687C 775.178,683.74 773.512,679.74 773.5,675C 774.072,662.637 780.072,654.47 791.5,650.5 Z"/></g>
<g><path style="opacity:1" fill="#242021" d="M 1037.5,650.5 C 1051.24,648.074 1057.4,653.741 1056,667.5C 1054.06,682.793 1045.56,689.96 1030.5,689C 1028,687.833 1026.17,686 1025,683.5C 1021.61,669.477 1025.78,658.477 1037.5,650.5 Z"/></g>
<g><path style="opacity:1" fill="#e65d2a" d="M 175.5,665.5 C 181.552,663.569 187.219,664.403 192.5,668C 196.833,672.333 201.167,676.667 205.5,681C 203.789,683.589 201.955,686.089 200,688.5C 191.662,680.995 183.495,673.328 175.5,665.5 Z"/></g>
<g><path style="opacity:1" fill="#e75e2a" d="M 353.5,678.5 C 349.227,681.434 345.227,684.767 341.5,688.5C 340.476,687.148 339.476,685.815 338.5,684.5C 337.972,683.279 337.305,682.113 336.5,681C 341.865,675.301 347.531,669.967 353.5,665C 357.833,664.333 362.167,664.333 366.5,665C 361.963,669.369 357.63,673.869 353.5,678.5 Z"/></g>
<g><path style="opacity:1" fill="#ed602b" d="M 171.5,664.5 C 180.662,673.495 189.995,682.328 199.5,691C 206.36,693.284 213.026,695.951 219.5,699C 213.333,705.167 207.167,711.333 201,717.5C 184.751,707.959 168.584,698.292 152.5,688.5C 158.857,680.481 165.19,672.481 171.5,664.5 Z"/></g>
<g><path style="opacity:1" fill="#221e1f" d="M 192.5,666.5 C 200.216,665.894 207.883,667.06 215.5,670C 221.167,675 226.833,680 232.5,685C 231.737,685.944 230.737,686.444 229.5,686.5C 222.121,684.429 214.788,682.262 207.5,680C 202.846,675.024 197.846,670.524 192.5,666.5 Z"/></g>
<g><path style="opacity:1" fill="#221e1f" d="M 310.5,686.5 C 309.711,686.217 309.044,685.717 308.5,685C 312.334,682.332 315.667,679.165 318.5,675.5C 324.392,670.136 331.392,666.969 339.5,666C 342.5,665.333 345.5,665.333 348.5,666C 344.167,670.333 339.833,674.667 335.5,679C 327.187,681.66 318.854,684.16 310.5,686.5 Z"/></g>
<g><path style="opacity:1" fill="#ec602b" d="M 330.5,708.5 C 328.237,704.897 325.57,701.564 322.5,698.5C 329.049,695.727 335.715,693.227 342.5,691C 346.704,686.964 350.704,682.798 354.5,678.5C 359.176,673.991 364.009,669.657 369,665.5C 375.544,672.21 381.877,679.21 388,686.5C 388.749,687.635 388.583,688.635 387.5,689.5C 371.833,698.833 356.167,708.167 340.5,717.5C 337.147,714.478 333.813,711.478 330.5,708.5 Z"/></g>
<g><path style="opacity:1" fill="#ec602b" d="M 269.5,665.5 C 279.172,669.419 288.672,673.752 298,678.5C 300.007,691.113 300.507,703.78 299.5,716.5C 290.039,712.735 280.539,709.069 271,705.5C 260.912,709.473 250.746,713.14 240.5,716.5C 241.352,703.842 242.186,691.175 243,678.5C 251.971,674.264 260.804,669.931 269.5,665.5 Z"/></g>
<g><path style="opacity:1" fill="#f7f1f0" d="M 545.5,667.5 C 555.58,667.077 565.58,667.577 575.5,669C 581.736,675.304 582.069,682.137 576.5,689.5C 574.287,691.774 571.621,693.274 568.5,694C 559.506,694.5 550.506,694.666 541.5,694.5C 542.724,685.486 544.058,676.486 545.5,667.5 Z"/></g>
<g><path style="opacity:1" fill="#242021" d="M 549.5,671.5 C 556.508,671.334 563.508,671.5 570.5,672C 574.428,672.427 576.428,674.594 576.5,678.5C 576.415,683.178 574.415,686.678 570.5,689C 562.561,690.321 554.561,690.821 546.5,690.5C 547.092,684.095 548.092,677.762 549.5,671.5 Z"/></g>
<g><path style="opacity:1" fill="#7c7b7b" d="M 971.5,672.5 C 959.265,673.185 946.932,673.852 934.5,674.5C 946.455,672.52 958.788,671.854 971.5,672.5 Z"/></g>
<g><path style="opacity:1" fill="#ea5f2a" d="M 239.5,681.5 C 240.473,683.948 240.806,686.615 240.5,689.5C 240.401,698.844 240.068,708.177 239.5,717.5C 227.829,717.667 216.162,717.5 204.5,717C 216.2,705.16 227.867,693.327 239.5,681.5 Z"/></g>
<g><path style="opacity:1" fill="#ed602b" d="M 113.5,681.5 C 126.23,684.011 138.897,686.844 151.5,690C 168.115,699.631 184.449,709.631 200.5,720C 196.33,733.178 192.163,746.344 188,759.5C 162.363,735.531 137.03,711.198 112,686.5C 111.878,684.718 112.378,683.052 113.5,681.5 Z"/></g>
<g><path style="opacity:1" fill="#e45c29" d="M 206.5,681.5 C 212.861,683.231 219.194,685.065 225.5,687C 226.91,687.368 227.91,688.201 228.5,689.5C 226.167,692.5 223.5,695.167 220.5,697.5C 214.167,695 207.833,692.5 201.5,690C 203.052,687.057 204.719,684.223 206.5,681.5 Z"/></g>
<g><path style="opacity:1" fill="#ea5f2a" d="M 306.5,684.5 C 313.799,693.467 321.799,701.8 330.5,709.5C 332.628,712.13 334.961,714.63 337.5,717C 325.838,717.5 314.171,717.667 302.5,717.5C 301.276,705.192 300.776,692.859 301,680.5C 302.451,682.464 304.284,683.797 306.5,684.5 Z"/></g>
<g><path style="opacity:1" fill="#241109" d="M 317.5,675.5 C 317.833,675.5 318.167,675.5 318.5,675.5C 315.667,679.165 312.334,682.332 308.5,685C 309.044,685.717 309.711,686.217 310.5,686.5C 311.209,687.404 312.209,687.737 313.5,687.5C 313.389,688.117 313.056,688.617 312.5,689C 315.135,692.316 318.301,694.816 322,696.5C 328.132,694.846 333.966,692.513 339.5,689.5C 338.544,687.925 337.877,686.258 337.5,684.5C 337.833,684.5 338.167,684.5 338.5,684.5C 339.476,685.815 340.476,687.148 341.5,688.5C 345.227,684.767 349.227,681.434 353.5,678.5C 353.833,678.5 354.167,678.5 354.5,678.5C 350.704,682.798 346.704,686.964 342.5,691C 335.715,693.227 329.049,695.727 322.5,698.5C 325.57,701.564 328.237,704.897 330.5,708.5C 330.5,708.833 330.5,709.167 330.5,709.5C 321.799,701.8 313.799,693.467 306.5,684.5C 307.167,684.5 307.5,684.167 307.5,683.5C 310.564,680.43 313.897,677.763 317.5,675.5 Z"/></g>
<g><path style="opacity:1" fill="#e55d2a" d="M 337.5,684.5 C 337.877,686.258 338.544,687.925 339.5,689.5C 333.966,692.513 328.132,694.846 322,696.5C 318.301,694.816 315.135,692.316 312.5,689C 313.056,688.617 313.389,688.117 313.5,687.5C 320.382,685.737 327.215,683.737 334,681.5C 335.174,682.544 336.341,683.544 337.5,684.5 Z"/></g>
<g><path style="opacity:1" fill="#ed602b" d="M 424.5,681.5 C 428.094,681.425 429.928,683.091 430,686.5C 405.47,710.698 380.637,734.531 355.5,758C 354.552,758.483 353.552,758.649 352.5,758.5C 349.875,746.249 346.375,734.249 342,722.5C 341.333,721.167 341.333,719.833 342,718.5C 357.916,709.126 373.75,699.626 389.5,690C 401.276,687.083 412.942,684.25 424.5,681.5 Z"/></g>
<g><path style="opacity:1" fill="#7b3217" d="M 240.5,689.5 C 240.806,686.615 240.473,683.948 239.5,681.5C 239.783,680.711 240.283,680.044 241,679.5C 241.808,683.027 241.641,686.36 240.5,689.5 Z"/></g>
<g><path style="opacity:1" fill="#eb5f2a" d="M 430.5,687.5 C 437.95,700.065 444.616,713.065 450.5,726.5C 443.929,725.728 437.429,724.728 431,723.5C 429.554,725.941 428.721,728.608 428.5,731.5C 426.801,731.38 425.135,731.046 423.5,730.5C 406.069,735.355 388.736,740.188 371.5,745C 391.366,725.966 411.033,706.799 430.5,687.5 Z"/></g>
<g><path style="opacity:1" fill="#ea5f2a" d="M 160.5,743.5 C 158.485,742.076 156.152,741.41 153.5,741.5C 141.826,737.618 129.993,733.952 118,730.5C 116.612,731.554 115.112,731.72 113.5,731C 112.446,728.618 111.779,726.118 111.5,723.5C 105.356,724.545 99.1893,725.545 93,726.5C 92.1667,726.167 91.3333,725.833 90.5,725.5C 96.9124,713.007 103.579,700.674 110.5,688.5C 130.349,707.516 150.349,726.35 170.5,745C 167.242,744.527 163.909,744.027 160.5,743.5 Z"/></g>
<g><path style="opacity:1" fill="#ed602b" d="M 296.5,766.5 C 296.249,768.17 295.582,769.67 294.5,771C 286.488,771.055 278.488,770.555 270.5,769.5C 264.158,770.084 257.825,770.751 251.5,771.5C 249.833,771.167 248.167,770.833 246.5,770.5C 245.154,767.145 243.82,763.812 242.5,760.5C 240.451,756.568 239.118,752.401 238.5,748C 239.024,738.109 240.024,728.275 241.5,718.5C 251.231,714.534 261.064,710.868 271,707.5C 280.936,710.868 290.769,714.534 300.5,718.5C 302.164,730.12 302.664,741.787 302,753.5C 300.452,757.985 298.619,762.318 296.5,766.5 Z"/></g>
<g><path style="opacity:1" fill="#f8bcaf" d="M 508.5,715.5 C 527.805,717.488 547.472,718.154 567.5,717.5C 547.674,718.497 527.674,718.83 507.5,718.5C 507.263,717.209 507.596,716.209 508.5,715.5 Z"/></g>
<g><path style="opacity:1" fill="#f8beb1" d="M 687.5,714.5 C 687.5,715.5 687.5,716.5 687.5,717.5C 697.167,717.5 706.833,717.5 716.5,717.5C 706.681,718.494 696.681,718.827 686.5,718.5C 686.232,716.901 686.566,715.568 687.5,714.5 Z"/></g>
<g><path style="opacity:1" fill="#f8beb1" d="M 1152.5,716.5 C 1163.6,717.819 1174.6,717.819 1185.5,716.5C 1186.04,716.56 1186.38,716.893 1186.5,717.5C 1180.83,717.833 1175.17,718.167 1169.5,718.5C 1163.46,718.496 1157.79,717.829 1152.5,716.5 Z"/></g>
<g><path style="opacity:1" fill="#632813" d="M 218.5,719.5 C 220.966,718.366 223.633,718.199 226.5,719C 225.956,719.717 225.289,720.217 224.5,720.5C 222.735,719.539 220.735,719.205 218.5,719.5 Z"/></g>
<g><path style="opacity:1" fill="#6a2b14" d="M 322.5,719.5 C 320.585,719.216 318.919,719.549 317.5,720.5C 316.711,720.217 316.044,719.717 315.5,719C 318.039,718.204 320.372,718.371 322.5,719.5 Z"/></g>
<g><path style="opacity:1" fill="#e95f2a" d="M 218.5,719.5 C 220.735,719.205 222.735,719.539 224.5,720.5C 222.912,722.113 221.912,724.113 221.5,726.5C 218.128,742.655 214.128,758.655 209.5,774.5C 208.817,774.137 208.15,773.804 207.5,773.5C 201.382,769.223 195.382,764.723 189.5,760C 193.608,746.511 197.608,733.011 201.5,719.5C 207.167,719.5 212.833,719.5 218.5,719.5 Z"/></g>
<g><path style="opacity:1" fill="#e95e2a" d="M 241.5,761.5 C 242.828,765.149 244.161,768.815 245.5,772.5C 245.42,774.33 244.587,775.663 243,776.5C 235.155,772.244 227.155,768.244 219,764.5C 216.698,766.477 214.698,768.81 213,771.5C 215.835,756.819 219.002,742.152 222.5,727.5C 224.946,719.931 230.279,716.931 238.5,718.5C 238.61,727.849 238.277,737.182 237.5,746.5C 237.239,752.031 238.572,757.031 241.5,761.5 Z"/></g>
<g><path style="opacity:1" fill="#ea5f2a" d="M 312.5,719.5 C 315.112,720.277 316.945,721.944 318,724.5C 321.849,740.222 325.515,755.889 329,771.5C 327.328,768.663 325.161,766.33 322.5,764.5C 314.303,768.765 305.969,772.765 297.5,776.5C 296.266,773.535 296.266,770.535 297.5,767.5C 300.596,761.892 302.93,755.892 304.5,749.5C 303.619,742.864 303.286,736.197 303.5,729.5C 303.5,726.167 303.5,722.833 303.5,719.5C 306.5,719.5 309.5,719.5 312.5,719.5 Z"/></g>
<g><path style="opacity:1" fill="#ea5f2a" d="M 317.5,720.5 C 318.919,719.549 320.585,719.216 322.5,719.5C 328.425,719.192 334.259,719.525 340,720.5C 343.911,733.313 347.745,746.146 351.5,759C 351.415,760.107 351.081,761.107 350.5,762C 344.333,766.167 338.167,770.333 332,774.5C 327.455,756.312 322.622,738.312 317.5,720.5 Z"/></g>
<g><path style="opacity:1" fill="#7b7a7a" d="M 503.5,719.5 C 524.808,721.489 546.474,722.156 568.5,721.5C 546.673,722.497 524.673,722.831 502.5,722.5C 502.263,721.209 502.596,720.209 503.5,719.5 Z"/></g>
<g><path style="opacity:1" fill="#7a7979" d="M 682.5,719.5 C 694.455,721.48 706.788,722.146 719.5,721.5C 707.011,722.495 694.344,722.829 681.5,722.5C 681.263,721.209 681.596,720.209 682.5,719.5 Z"/></g>
<g><path style="opacity:1" fill="#7b7a7a" d="M 889.5,718.5 C 889.5,719.5 889.5,720.5 889.5,721.5C 901.833,721.5 914.167,721.5 926.5,721.5C 914.011,722.495 901.344,722.829 888.5,722.5C 888.232,720.901 888.566,719.568 889.5,718.5 Z"/></g>
<g><path style="opacity:1" fill="#7b7a7a" d="M 1080.5,720.5 C 1093.99,721.496 1107.66,721.829 1121.5,721.5C 1107.66,722.826 1093.66,722.826 1079.5,721.5C 1079.62,720.893 1079.96,720.56 1080.5,720.5 Z"/></g>
<g><path style="opacity:1" fill="#7c3217" d="M 312.5,719.5 C 309.5,719.5 306.5,719.5 303.5,719.5C 303.5,722.833 303.5,726.167 303.5,729.5C 302.518,726.038 302.185,722.371 302.5,718.5C 306.042,718.187 309.375,718.521 312.5,719.5 Z"/></g>
<g><path style="opacity:1" fill="#fafafa" d="M 299.5,778.5 C 306.894,774.385 314.394,770.385 322,766.5C 325.147,769.468 327.814,772.802 330,776.5C 330.497,779.146 330.664,781.813 330.5,784.5C 325.775,790.928 321.275,797.595 317,804.5C 314.846,805.23 312.679,805.897 310.5,806.5C 284.552,809.272 258.552,811.605 232.5,813.5C 225.886,803.713 219.053,794.046 212,784.5C 211.333,781.5 211.333,778.5 212,775.5C 214.312,772.354 216.812,769.354 219.5,766.5C 226.921,770.627 234.421,774.627 242,778.5C 242.395,780.179 242.228,781.845 241.5,783.5C 245.551,790.393 250.218,796.893 255.5,803C 265.833,803.667 276.167,803.667 286.5,803C 291,797.167 295.5,791.333 300,785.5C 300.018,783.203 299.851,780.869 299.5,778.5 Z"/></g>
<g><path style="opacity:1" fill="#070508" d="M 221.5,726.5 C 222.167,726.5 222.5,726.833 222.5,727.5C 219.002,742.152 215.835,756.819 213,771.5C 214.698,768.81 216.698,766.477 219,764.5C 227.155,768.244 235.155,772.244 243,776.5C 244.587,775.663 245.42,774.33 245.5,772.5C 244.161,768.815 242.828,765.149 241.5,761.5C 241.5,760.833 241.833,760.5 242.5,760.5C 243.82,763.812 245.154,767.145 246.5,770.5C 248.167,770.833 249.833,771.167 251.5,771.5C 257.825,770.751 264.158,770.084 270.5,769.5C 278.488,770.555 286.488,771.055 294.5,771C 295.582,769.67 296.249,768.17 296.5,766.5C 297.167,766.5 297.5,766.833 297.5,767.5C 296.266,770.535 296.266,773.535 297.5,776.5C 298.167,777.167 298.833,777.833 299.5,778.5C 299.851,780.869 300.018,783.203 300,785.5C 295.5,791.333 291,797.167 286.5,803C 276.167,803.667 265.833,803.667 255.5,803C 250.218,796.893 245.551,790.393 241.5,783.5C 242.228,781.845 242.395,780.179 242,778.5C 234.421,774.627 226.921,770.627 219.5,766.5C 216.812,769.354 214.312,772.354 212,775.5C 211.333,778.5 211.333,781.5 212,784.5C 219.053,794.046 225.886,803.713 232.5,813.5C 232.5,814.167 232.833,814.5 233.5,814.5C 232.614,815.776 231.614,815.776 230.5,814.5C 223.861,804.695 217.028,795.028 210,785.5C 209.667,782.5 209.333,779.5 209,776.5C 208.292,775.619 207.458,774.953 206.5,774.5C 206.5,773.833 206.833,773.5 207.5,773.5C 208.15,773.804 208.817,774.137 209.5,774.5C 214.128,758.655 218.128,742.655 221.5,726.5 Z"/></g>
<g><path style="opacity:1" fill="#484748" d="M 292.5,791.5 C 289.038,790.518 285.371,790.185 281.5,790.5C 282.29,789.206 283.29,788.039 284.5,787C 288.5,786.333 292.5,786.333 296.5,787C 294.93,788.397 293.596,789.897 292.5,791.5 Z"/></g>
<g><path style="opacity:1" fill="#68686a" d="M 262.5,793.5 C 258.629,793.185 254.962,793.518 251.5,794.5C 250.221,792.877 248.887,791.21 247.5,789.5C 251.122,788.341 254.789,788.175 258.5,789C 260.041,790.371 261.375,791.871 262.5,793.5 Z"/></g>
<g><path style="opacity:1" fill="#7f7f82" d="M 281.5,790.5 C 285.371,790.185 289.038,790.518 292.5,791.5C 291.136,793.191 289.803,794.858 288.5,796.5C 285.038,795.518 281.371,795.185 277.5,795.5C 278.864,793.809 280.197,792.142 281.5,790.5 Z"/></g>
<g><path style="opacity:1" fill="#a2a3a6" d="M 262.5,793.5 C 263.833,795.167 265.167,796.833 266.5,798.5C 262.629,798.185 258.962,798.518 255.5,799.5C 254.197,797.858 252.864,796.191 251.5,794.5C 254.962,793.518 258.629,793.185 262.5,793.5 Z"/></g>
<g><path style="opacity:1" fill="#bebec1" d="M 277.5,795.5 C 281.371,795.185 285.038,795.518 288.5,796.5C 287.134,800.894 284.134,802.561 279.5,801.5C 277.5,801.167 275.5,800.833 273.5,800.5C 274.857,798.814 276.19,797.148 277.5,795.5 Z"/></g>
<g><path style="opacity:1" fill="#d2d2d4" d="M 266.5,798.5 C 266.953,799.458 267.619,800.292 268.5,801C 264.5,801.667 260.5,801.667 256.5,801C 255.944,800.617 255.611,800.117 255.5,799.5C 258.962,798.518 262.629,798.185 266.5,798.5 Z"/></g>
<g><path style="opacity:1" fill="#393637" d="M 310.5,806.5 C 310.5,807.167 310.167,807.5 309.5,807.5C 288.012,809.869 266.512,812.202 245,814.5C 243.014,814.569 241.514,815.235 240.5,816.5C 238.521,814.832 236.188,814.166 233.5,814.5C 232.833,814.5 232.5,814.167 232.5,813.5C 258.552,811.605 284.552,809.272 310.5,806.5 Z"/></g>
<g><path style="opacity:1" fill="#f5f5f5" d="M 309.5,807.5 C 301.685,813.803 293.685,819.97 285.5,826C 275.5,826.667 265.5,826.667 255.5,826C 250.81,822.323 245.81,819.156 240.5,816.5C 241.514,815.235 243.014,814.569 245,814.5C 266.512,812.202 288.012,809.869 309.5,807.5 Z"/></g>
</svg>
